<svg width="192" height="192" viewBox="0 0 192 192" fill="none" xmlns="http://www.w3.org/2000/svg">
  <rect width="192" height="192" rx="24" fill="#4f46e5"/>
  <path d="M96 40C78.3 40 64 54.3 64 72C64 89.7 78.3 104 96 104C113.7 104 128 89.7 128 72C128 54.3 113.7 40 96 40ZM96 88C87.2 88 80 80.8 80 72C80 63.2 87.2 56 96 56C104.8 56 112 63.2 112 72C112 80.8 104.8 88 96 88Z" fill="white"/>
  <path d="M96 112C75.6 112 56 122.4 42.8 138.8C41.2 140.8 42.8 144 45.2 144H146.8C149.2 144 150.8 140.8 149.2 138.8C136 122.4 116.4 112 96 112Z" fill="white"/>
  <circle cx="96" cy="72" r="8" fill="#4f46e5"/>
</svg>